<?xml version="1.0" encoding="utf-8"?>
<!-- Generator: Adobe Illustrator 16.0.0, SVG Export Plug-In . SVG Version: 6.00 Build 0)  -->
<!DOCTYPE svg PUBLIC "-//W3C//DTD SVG 1.1//EN" "http://www.w3.org/Graphics/SVG/1.1/DTD/svg11.dtd">
<svg version="1.1" id="Layer_1" xmlns="http://www.w3.org/2000/svg" xmlns:xlink="http://www.w3.org/1999/xlink" x="0px" y="0px"
	 width="382.985px" height="187.717px" viewBox="0 0 382.985 187.717" enable-background="new 0 0 382.985 187.717"
	 xml:space="preserve">
<rect x="-330.138" y="-92.414" fill="#00A651" stroke="#000000" stroke-miterlimit="10" width="95.862" height="92.414"/>
<text transform="matrix(1 0 0 1 -624.7524 -95.3096)" font-family="'Euphorigenic'" font-size="66">One Host</text>
<g>
	<text transform="matrix(1 0 0 1 -624.6836 -34.8848)" font-family="'Euphorigenic'" font-size="71">Tanzania</text>
</g>
<text transform="matrix(1 0 0 1 -633.7183 127.4824)" font-family="'AgencyFB-Reg'" font-size="66">One Host</text>
<g>
	<text transform="matrix(1 0 0 1 -633.6494 187.9082)" font-family="'AgencyFB-Reg'" font-size="71">Tanzania</text>
</g>
<text transform="matrix(1 0 0 1 -633.6841 286.793)" font-family="'BirchStd'" font-size="66">One Host</text>
<g>
	<text transform="matrix(1 0 0 1 -633.6152 347.2178)" font-family="'BirchStd'" font-size="71">Tanzania</text>
</g>
<g>
	<path fill-rule="evenodd" clip-rule="evenodd" fill="#2E3192" d="M144.863,68.559c0,39.728,0,79.406,0,119.158
		c-33.963,0-67.912,0-101.94,0c0-39.698,0-79.396,0-119.158C76.867,68.559,110.806,68.559,144.863,68.559z M139.625,73.779
		c-30.558,0-61.016,0-91.49,0c0,11.047,0,22.016,0,33.063c30.523,0,60.98,0,91.49,0C139.625,95.785,139.625,84.814,139.625,73.779z
		 M48.111,182.507c30.573,0,61.035,0,91.498,0c0-11.048,0-22.017,0-32.986c-30.53,0-60.991,0-91.498,0
		C48.111,160.548,48.111,171.49,48.111,182.507z M48.121,144.15c30.529,0,61.006,0,91.483,0c0-10.722,0-21.354,0-32.026
		c-30.539,0-61.003,0-91.483,0C48.121,122.864,48.121,133.475,48.121,144.15z"/>
	<path fill-rule="evenodd" clip-rule="evenodd" fill="#00AEEF" d="M151.413,108.352c0-1.787,0-3.437,0-5.235c0.325,0,0.64,0,0.955,0
		c2.889-0.001,5.776,0.017,8.664-0.006c10.441-0.08,19.874-8.441,21.243-18.815c1.248-9.451-2.991-18.04-11.205-22.717
		c-2.705-1.54-5.641-2.319-8.704-2.692c-0.239-0.029-0.477-0.065-0.712-0.113c-0.083-0.018-0.157-0.08-0.313-0.163
		c0-1.405,0.106-2.853-0.019-4.28c-0.64-7.313-4.12-12.936-10.27-16.912c-2.853-1.844-6.025-2.816-9.368-3.244
		c-0.657-0.084-0.864-0.322-0.872-0.949c-0.05-3.701-0.647-7.311-2.104-10.725c-3.461-8.112-9.38-13.608-17.841-16.132
		c-11.639-3.472-24.093,1.138-30.86,11.237c-0.316,0.472-0.652,0.931-0.998,1.423c-14.438-8.484-29.073-9.297-43.228,0
		c-14.107,9.265-19.449,22.939-17.621,39.612c-1.624,0.192-3.273,0.293-4.885,0.593C14.164,60.929,7.348,67.787,5.665,76.81
		c-2.187,11.722,4.753,22.625,16.296,25.653c1.638,0.43,3.379,0.544,5.082,0.627c2.13,0.104,4.269,0.025,6.484,0.025
		c0,1.74,0,3.432,0,5.236c-0.607,0-1.2,0.005-1.792-0.001c-3.274-0.033-6.557,0.171-9.798-0.53
		c-8.022-1.736-14.114-6.128-18.272-13.202c-2.929-4.983-4.05-10.388-3.547-16.106c0.432-4.912,2.097-9.394,5.039-13.4
		c4.269-5.813,9.854-9.551,16.941-10.999c0.145-0.029,0.282-0.093,0.525-0.176c0-1.365-0.064-2.748,0.01-4.123
		c0.555-10.361,4.256-19.468,11.077-27.273c6.023-6.893,13.496-11.529,22.366-13.792c3.422-0.873,6.916-1.337,10.494-1.385
		c7.119-0.095,13.816,1.44,20.187,4.536c0.561,0.272,0.861,0.189,1.275-0.289c5.582-6.459,12.626-10.268,21.083-11.365
		c3.806-0.494,7.582-0.227,11.361,0.642c6.632,1.524,12.21,4.774,16.797,9.738c4.773,5.165,7.554,11.295,8.47,18.258
		c0.087,0.66,0.379,0.812,0.917,0.963c7.033,1.988,12.447,6.123,16.212,12.38c2.058,3.421,3.261,7.155,3.64,11.126
		c0.074,0.787,0.353,1.052,1.063,1.223c2.773,0.668,5.333,1.878,7.696,3.439c5.68,3.753,9.509,8.919,11.437,15.46
		c4.542,15.406-5.692,31.862-21.522,34.436c-2.827,0.459-5.753,0.336-8.635,0.431C154.87,108.396,153.188,108.352,151.413,108.352z"
		/>
	<path fill-rule="evenodd" clip-rule="evenodd" fill="#2E3192" d="M162.406,157.698c1.712,0,3.381,0,5.108,0c0,1.719,0,3.39,0,5.121
		c-1.705,0-3.37,0-5.108,0C162.406,161.122,162.406,159.433,162.406,157.698z"/>
	<path fill-rule="evenodd" clip-rule="evenodd" fill="#2E3192" d="M162.416,134.07c1.739,0,3.383,0,5.085,0c0,1.71,0,3.379,0,5.115
		c-1.672,0-3.336,0-5.085,0C162.416,137.507,162.416,135.818,162.416,134.07z"/>
	<path fill-rule="evenodd" clip-rule="evenodd" fill="#2E3192" d="M167.501,151.037c-1.72,0-3.383,0-5.103,0
		c0-1.721,0-3.386,0-5.104c1.707,0,3.375,0,5.103,0C167.501,147.621,167.501,149.309,167.501,151.037z"/>
	<path fill-rule="evenodd" clip-rule="evenodd" fill="#2E3192" d="M162.403,169.523c1.689,0,3.355,0,5.063,0
		c0,1.705,0,3.384,0,5.101c-1.732,0-3.365,0-5.063,0C162.403,172.912,162.403,171.25,162.403,169.523z"/>
	<path fill-rule="evenodd" clip-rule="evenodd" d="M20.261,145.905c1.726,0,3.395,0,5.119,0c0,1.724,0,3.412,0,5.145
		c-1.729,0-3.392,0-5.119,0C20.261,149.334,20.261,147.669,20.261,145.905z"/>
	<path fill-rule="evenodd" clip-rule="evenodd" d="M20.256,157.695c1.755,0,3.396,0,5.11,0c0,1.709,0,3.376,0,5.114
		c-1.665,0-3.35,0-5.11,0C20.256,161.114,20.256,159.423,20.256,157.695z"/>
	<path fill-rule="evenodd" clip-rule="evenodd" d="M20.264,134.086c1.731,0,3.399,0,5.121,0c0,1.725,0,3.394,0,5.119
		c-1.713,0-3.383,0-5.121,0C20.264,137.502,20.264,135.81,20.264,134.086z"/>
	<path fill-rule="evenodd" clip-rule="evenodd" d="M20.236,174.626c0-1.709,0-3.35,0-5.08c1.704,0,3.415,0,5.16,0
		c0,1.698,0,3.362,0,5.08C23.679,174.626,22.012,174.626,20.236,174.626z"/>
	<path fill-rule="evenodd" clip-rule="evenodd" fill="#2E3192" d="M63.584,97.118c-1.732,0-3.401,0-5.122,0
		c0-4.546,0-9.041,0-13.617c1.679,0,3.368,0,5.122,0C63.584,88.005,63.584,92.524,63.584,97.118z"/>
	<path fill-rule="evenodd" clip-rule="evenodd" fill="#2E3192" d="M70.893,83.473c1.741,0,3.409,0,5.125,0c0,4.546,0,9.04,0,13.616
		c-1.686,0-3.375,0-5.125,0C70.893,92.581,70.893,88.064,70.893,83.473z"/>
	<path fill-rule="evenodd" clip-rule="evenodd" fill="#2E3192" d="M83.274,83.459c1.73,0,3.375,0,5.084,0c0,4.559,0,9.079,0,13.654
		c-1.688,0-3.358,0-5.084,0C83.274,92.585,83.274,88.064,83.274,83.459z"/>
	<path fill-rule="evenodd" clip-rule="evenodd" fill="#2E3192" d="M124.187,87.729c1.701,0,3.373,0,5.161,0
		c0,1.594,0.018,3.144-0.026,4.692c-0.004,0.166-0.36,0.456-0.56,0.462c-1.5,0.038-3.002,0.021-4.575,0.021
		C124.187,91.179,124.187,89.513,124.187,87.729z"/>
	<path fill-rule="evenodd" clip-rule="evenodd" fill="#2E3192" d="M58.457,159.135c1.757,0,3.405,0,5.122,0
		c0,4.584,0,9.134,0,13.671c-1.701,0-3.388,0-5.122,0C58.457,168.203,58.457,163.705,58.457,159.135z"/>
	<path fill-rule="evenodd" clip-rule="evenodd" fill="#2E3192" d="M75.983,172.846c-1.723,0-3.395,0-5.11,0
		c0-4.568,0-9.092,0-13.683c1.694,0,3.359,0,5.11,0C75.983,163.692,75.983,168.235,75.983,172.846z"/>
	<path fill-rule="evenodd" clip-rule="evenodd" fill="#2E3192" d="M88.342,172.861c-1.706,0-3.352,0-5.068,0
		c0-4.557,0-9.08,0-13.683c1.662,0,3.326,0,5.068,0C88.342,163.692,88.342,168.238,88.342,172.861z"/>
	<path fill-rule="evenodd" clip-rule="evenodd" fill="#2E3192" d="M129.317,163.475c0,1.728,0,3.375,0,5.148
		c-1.611,0-3.194,0.018-4.775-0.028c-0.146-0.005-0.395-0.408-0.399-0.631c-0.037-1.471-0.02-2.943-0.02-4.489
		C125.848,163.475,127.54,163.475,129.317,163.475z"/>
	<path fill-rule="evenodd" clip-rule="evenodd" fill="#00AEEF" d="M76.027,135.004c-1.736,0-3.405,0-5.133,0
		c0-4.574,0-9.102,0-13.695c1.704,0,3.397,0,5.133,0C76.027,125.878,76.027,130.382,76.027,135.004z"/>
	<path fill-rule="evenodd" clip-rule="evenodd" fill="#00AEEF" d="M58.457,134.987c0-4.581,0-9.104,0-13.617
		c1.613,0,3.194-0.023,4.771,0.037c0.152,0.006,0.4,0.533,0.405,0.821c0.034,1.893,0.012,3.786,0.011,5.679
		c-0.001,2.339,0,4.678,0,7.08C61.907,134.987,60.24,134.987,58.457,134.987z"/>
	<path fill-rule="evenodd" clip-rule="evenodd" fill="#00AEEF" d="M83.263,121.313c1.686,0,3.351,0,5.087,0c0,4.54,0,9.084,0,13.685
		c-1.701,0-3.368,0-5.087,0C83.263,130.431,83.263,125.907,83.263,121.313z"/>
	<g>
		<path d="M382.985,92.856h-5.479V69.041h5.479V65.27h-5.479v-9.765h-4.222v9.765h-3.771v3.771h3.771v23.944
			c0,2.428,1.203,3.642,3.609,3.642h6.091V92.856z M364.906,87.055c0-1.439-0.526-2.578-1.579-3.416l-11.312-9.185v-5.479h8.669
			v6.188h4.157v-6.252c0-2.428-1.214-3.642-3.642-3.642h-9.7c-2.429,0-3.642,1.214-3.642,3.642v5.221
			c0,1.375,0.537,2.493,1.611,3.352l11.215,9.185v6.252h-8.669v-7.058h-4.222v7.122c0,2.428,1.213,3.642,3.642,3.642h9.829
			c2.428,0,3.642-1.213,3.642-3.642V87.055z M327.298,92.856V69.041h9.442v23.815H327.298z M341.026,68.912
			c0-2.428-1.214-3.642-3.642-3.642h-10.764c-2.406,0-3.609,1.214-3.609,3.642v24.073c0,2.428,1.203,3.642,3.609,3.642h10.764
			c2.428,0,3.642-1.213,3.642-3.642V68.912z M315.471,46.192h-4.479v22.172h-12.149V46.192h-4.479v50.435h4.479V72.392h12.149
			v24.234h4.479V46.192z M260.46,78.29v-9.442h9.217v9.442H260.46z M273.834,87.313h-4.157v5.736h-9.217V81.706h11.924l1.45-1.515
			V68.912c0-2.428-1.204-3.642-3.609-3.642h-10.313c-2.406,0-3.609,1.214-3.609,3.642v24.073c0,2.428,1.203,3.642,3.609,3.642
			h10.313c2.405,0,3.609-1.213,3.609-3.642V87.313z M249.374,68.589c0-2.341-1.192-3.513-3.577-3.513
			c-1.333,0-3.029,0.129-5.092,0.387c-1.697,0.237-3.384,0.462-5.06,0.677v-0.87h-4.286v31.356h4.286V69.363l9.442-0.258v27.521
			h4.286V68.589z M206.996,92.663V50.156h12.343v42.507H206.996z M223.818,49.769c0-1.052-0.339-1.912-1.015-2.578
			c-0.678-0.666-1.543-0.999-2.595-0.999h-14.115c-1.053,0-1.913,0.333-2.578,0.999c-0.666,0.666-0.999,1.526-0.999,2.578v43.28
			c0,1.053,0.333,1.913,0.999,2.578c0.666,0.666,1.525,0.999,2.578,0.999h14.115c1.052,0,1.917-0.333,2.595-0.999
			c0.676-0.666,1.015-1.525,1.015-2.578V49.769z"/>
		<path d="M360.946,156.346v-11.279h9.572v11.086L360.946,156.346z M374.675,132.336c0-2.428-1.203-3.641-3.609-3.641h-10.313
			c-2.406,0-3.609,1.213-3.609,3.641v5.285h4.158v-5.35h9.217v9.443h-10.088c-2.428,0-3.641,1.203-3.641,3.609v11.439
			c0,2.32,1.17,3.48,3.512,3.48c1.268,0,2.954-0.129,5.061-0.387c1.696-0.215,3.395-0.439,5.092-0.676v0.869h4.221V132.336z
			 M349.667,128.695h-4.221v31.355h4.221V128.695z M349.731,116.417h-4.35v5.414h4.35V116.417z M338.259,132.014
			c0-2.342-1.191-3.512-3.576-3.512c-1.333,0-3.029,0.129-5.092,0.387c-1.697,0.236-3.385,0.461-5.061,0.676v-0.869h-4.285v31.355
			h4.285v-27.264l9.443-0.258v27.521h4.285V132.014z M299.491,156.346v-11.279h9.57v11.086L299.491,156.346z M313.22,132.336
			c0-2.428-1.204-3.641-3.609-3.641h-10.313c-2.406,0-3.609,1.213-3.609,3.641v5.285h4.156v-5.35h9.217v9.443h-10.086
			c-2.429,0-3.643,1.203-3.643,3.609v11.439c0,2.32,1.172,3.48,3.514,3.48c1.268,0,2.953-0.129,5.059-0.387
			c1.697-0.215,3.395-0.439,5.092-0.676v0.869h4.223V132.336z M289.403,156.217h-11.473l11.473-25.523v-1.998h-15.307v3.834h10.248
			l-11.441,25.557v1.965h16.5V156.217z M267.458,132.014c0-2.342-1.193-3.512-3.578-3.512c-1.332,0-3.029,0.129-5.092,0.387
			c-1.697,0.236-3.383,0.461-5.059,0.676v-0.869h-4.287v31.355h4.287v-27.264l9.441-0.258v27.521h4.287V132.014z M228.688,156.346
			v-11.279h9.572v11.086L228.688,156.346z M242.417,132.336c0-2.428-1.203-3.641-3.609-3.641h-10.313
			c-2.406,0-3.609,1.213-3.609,3.641v5.285h4.158v-5.35h9.217v9.443h-10.088c-2.428,0-3.641,1.203-3.641,3.609v11.439
			c0,2.32,1.17,3.48,3.512,3.48c1.268,0,2.954-0.129,5.061-0.387c1.696-0.215,3.395-0.439,5.092-0.676v0.869h4.221V132.336z
			 M219.956,109.617h-20.142v3.964h7.863v46.47h4.479v-46.47h7.799V109.617z"/>
	</g>
	<rect x="42.923" y="182" fill-rule="evenodd" clip-rule="evenodd" fill="#2E3192" width="339.152" height="5.717"/>
</g>
</svg>
